<svg width="23" height="25" viewBox="0 0 23 25" fill="none" xmlns="http://www.w3.org/2000/svg">
<path fill-rule="evenodd" clip-rule="evenodd" d="M10.5643 0.921875H12.9219C14.9736 0.921875 16.5989 0.921875 17.8704 1.09267C19.1786 1.26904 20.238 1.63964 21.0741 2.47462C21.909 3.31071 22.2797 4.37006 22.456 5.67834C22.6268 6.9509 22.6268 8.57508 22.6268 10.6268V15.2169C22.6268 17.2687 22.6268 18.894 22.456 20.1654C22.2797 21.4737 21.909 22.533 21.0741 23.3691C20.238 24.2041 19.1786 24.5747 17.8704 24.7511C16.5978 24.9219 14.9736 24.9219 12.9219 24.9219H10.5643C8.51258 24.9219 6.88728 24.9219 5.61584 24.7511C4.30756 24.5747 3.24821 24.2041 2.41212 23.3691C1.57714 22.533 1.20654 21.4737 1.03017 20.1654C0.859375 18.8929 0.859375 17.2687 0.859375 15.2169V10.6268C0.859375 8.57508 0.859375 6.94978 1.03017 5.67834C1.20654 4.37006 1.57714 3.31071 2.41212 2.47462C3.24821 1.63964 4.30756 1.26904 5.61584 1.09267C6.8884 0.921875 8.51258 0.921875 10.5643 0.921875ZM5.83798 2.75257C4.715 2.90327 4.06756 3.18681 3.59426 3.65899C3.12319 4.13118 2.83965 4.77862 2.68896 5.9016C2.53491 7.04913 2.53268 8.56057 2.53268 10.6893V15.1544C2.53268 17.2832 2.53491 18.7957 2.68896 19.9433C2.83965 21.0651 3.12319 21.7126 3.59538 22.1848C4.06756 22.6569 4.715 22.9405 5.83798 23.0912C6.98551 23.2452 8.49696 23.2475 10.6257 23.2475H12.8583C14.987 23.2475 16.4996 23.2452 17.6471 23.0912C18.769 22.9405 19.4164 22.6569 19.8886 22.1848C20.3608 21.7126 20.6443 21.0651 20.795 19.9422C20.949 18.7957 20.9513 17.2832 20.9513 15.1544V10.6893C20.9513 8.56057 20.949 7.04913 20.795 5.90048C20.6443 4.77862 20.3608 4.13118 19.8886 3.65899C19.4164 3.18681 18.769 2.90327 17.646 2.75257C16.4996 2.59853 14.987 2.59629 12.8583 2.59629H10.6257C8.49696 2.59629 6.98663 2.59853 5.83798 2.75257ZM6.44077 10.6893C6.44077 10.4673 6.52898 10.2543 6.68598 10.0973C6.84299 9.94031 7.05594 9.85211 7.27798 9.85211H16.2082C16.4303 9.85211 16.6432 9.94031 16.8002 10.0973C16.9572 10.2543 17.0454 10.4673 17.0454 10.6893C17.0454 10.9114 16.9572 11.1243 16.8002 11.2813C16.6432 11.4383 16.4303 11.5265 16.2082 11.5265H7.27798C7.05594 11.5265 6.84299 11.4383 6.68598 11.2813C6.52898 11.1243 6.44077 10.9114 6.44077 10.6893ZM6.44077 15.1544C6.44077 14.9324 6.52898 14.7194 6.68598 14.5624C6.84299 14.4054 7.05594 14.3172 7.27798 14.3172H12.8594C13.0814 14.3172 13.2944 14.4054 13.4514 14.5624C13.6084 14.7194 13.6966 14.9324 13.6966 15.1544C13.6966 15.3765 13.6084 15.5894 13.4514 15.7464C13.2944 15.9034 13.0814 15.9916 12.8594 15.9916H7.27798C7.05594 15.9916 6.84299 15.9034 6.68598 15.7464C6.52898 15.5894 6.44077 15.3765 6.44077 15.1544Z" fill="#1DD096"/>
</svg>
