<svg width="28" height="28" viewBox="0 0 28 28" fill="none" xmlns="http://www.w3.org/2000/svg">
<path d="M4 14.3335C4 20.0407 8.62631 24.667 14.3335 24.667C20.0407 24.667 24.667 20.0407 24.667 14.3335C24.667 8.62631 20.0407 4 14.3335 4C8.62631 4 4 8.62631 4 14.3335Z" stroke="#9B9B9B" stroke-width="2" stroke-linecap="round" stroke-linejoin="round"/>
<path d="M15.3662 4.05176C15.3662 4.05176 18.4663 8.13349 18.4663 14.3336C18.4663 20.5337 15.3662 24.6154 15.3662 24.6154M13.2995 24.6154C13.2995 24.6154 10.1995 20.5337 10.1995 14.3336C10.1995 8.13349 13.2995 4.05176 13.2995 4.05176M4.65039 17.9503H24.0154M4.65039 10.7169H24.0154" stroke="#9B9B9B" stroke-width="2" stroke-linecap="round" stroke-linejoin="round"/>
</svg>
