<svg width="30" height="26" viewBox="0 0 30 26" fill="none" xmlns="http://www.w3.org/2000/svg">
<path d="M29.516 20.7624L18.2086 1.77909C17.8811 1.23762 17.4126 0.788481 16.8498 0.476356C16.287 0.164231 15.6495 0 15.0006 0C14.3518 0 13.7143 0.164231 13.1515 0.476356C12.5887 0.788481 12.1202 1.23762 11.7927 1.77909L0.485285 20.7624C0.167488 21.2879 0 21.8856 0 22.4943C0 23.103 0.167488 23.7007 0.485285 24.2261C0.80917 24.7703 1.27698 25.2214 1.84073 25.5331C2.40447 25.8448 3.04384 26.0059 3.69325 25.9998H26.308C26.957 26.0054 27.5959 25.8441 28.1591 25.5324C28.7223 25.2208 29.1898 24.7699 29.5134 24.2261C29.8316 23.7009 29.9995 23.1033 30 22.4946C30.0005 21.886 29.8334 21.2881 29.516 20.7624ZM26.8265 22.7249C26.774 22.8115 26.6981 22.8828 26.6071 22.9312C26.5161 22.9796 26.4132 23.0034 26.3093 22.9999H3.69325C3.58941 23.0034 3.48653 22.9796 3.39549 22.9312C3.30445 22.8828 3.22863 22.8115 3.17604 22.7249C3.13144 22.6548 3.10782 22.5741 3.10782 22.4918C3.10782 22.4095 3.13144 22.3288 3.17604 22.2587L14.4834 3.27531C14.5394 3.192 14.6161 3.12353 14.7064 3.07613C14.7967 3.02873 14.8979 3.0039 15.0006 3.0039C15.1034 3.0039 15.2046 3.02873 15.2949 3.07613C15.3852 3.12353 15.4619 3.192 15.5179 3.27531L26.824 22.2587C26.8689 22.3285 26.893 22.4091 26.8935 22.4914C26.8939 22.5737 26.8708 22.6546 26.8265 22.7249ZM13.449 14.5001V10.5002C13.449 10.1023 13.6125 9.72082 13.9035 9.43952C14.1945 9.15822 14.5891 9.00019 15.0006 9.00019C15.4122 9.00019 15.8068 9.15822 16.0978 9.43952C16.3888 9.72082 16.5523 10.1023 16.5523 10.5002V14.5001C16.5523 14.8979 16.3888 15.2794 16.0978 15.5607C15.8068 15.842 15.4122 16 15.0006 16C14.5891 16 14.1945 15.842 13.9035 15.5607C13.6125 15.2794 13.449 14.8979 13.449 14.5001ZM17.0695 19.5C17.0695 19.8955 16.9481 20.2822 16.7208 20.6111C16.4935 20.94 16.1704 21.1963 15.7924 21.3477C15.4143 21.4991 14.9984 21.5387 14.597 21.4615C14.1957 21.3843 13.8271 21.1939 13.5378 20.9142C13.2484 20.6345 13.0514 20.2781 12.9716 19.8901C12.8918 19.5022 12.9327 19.1001 13.0893 18.7346C13.2459 18.3692 13.5111 18.0568 13.8513 17.8371C14.1915 17.6173 14.5915 17.5 15.0006 17.5C15.5493 17.5 16.0755 17.7107 16.4635 18.0858C16.8515 18.4609 17.0695 18.9696 17.0695 19.5Z" fill="#FFBC56"/>
</svg>
